<svg width="24" height="24" viewBox="0 0 24 24" fill="none" xmlns="http://www.w3.org/2000/svg">
<path d="M3.80448 13.4753C3.55124 12.5555 3.1425 11.6697 2.72364 11.0376L2.44659 9.92029L1.62254 10.1148C1.04008 10.2845 0.812663 12.2663 1.17328 14.0963C1.55619 15.9141 2.65526 17.627 3.36485 17.4973L4.27248 17.2831L4.00607 16.2078C4.10939 15.4344 4.05266 14.4235 3.80448 13.4753Z" fill="#A2BFDC"/>
<path d="M4.62864 13.2808C5.09917 15.0778 4.88188 17.1018 4.18901 17.3028C3.47942 17.4325 2.38034 15.7196 1.99744 13.9018C1.63682 12.0718 1.86423 10.0899 2.44669 9.92027C3.04384 9.81138 4.13279 11.4828 4.62864 13.2808Z" fill="#043340"/>
<path d="M2.49731 10.4156C2.49731 8.81614 3.04331 7.39544 3.86179 6.16366C7.01113 1.42699 13.6395 0.623705 17.971 4.31043C19.8283 5.89117 21.3427 7.93941 21.3427 10.4156C21.3427 16.8136 17.1242 22 11.92 22C6.71585 22 2.49731 16.8136 2.49731 10.4156Z" fill="#A2BFDC"/>
<path d="M21.0771 8.64038C21.0097 8.41753 20.9302 8.19923 20.8406 7.98549C18.5806 6.78613 16.2857 6.00867 13.9898 5.66629C11.4817 5.2925 8.96851 5.43482 6.51965 6.0887C5.25799 6.42602 4.14979 6.86058 3.2138 7.30579C3.11301 7.52003 3.02083 7.73883 2.93878 7.96219C3.95226 7.44254 5.20633 6.91528 6.65893 6.52934C7.8512 6.21228 9.25873 5.9722 10.841 5.93878C9.98149 11.1814 10.3001 18.3619 10.5366 21.8774C10.6911 21.9053 10.8466 21.9286 11.0036 21.9473C10.766 18.4738 10.4318 11.1916 11.309 5.93523C14.1205 5.9484 17.4486 6.62405 21.0766 8.64139L21.0771 8.64038Z" fill="#4890C0"/>
<g style="mix-blend-mode:multiply" opacity="0.46">
<path d="M19.3166 5.62273C19.7264 6.47363 19.9685 7.39544 19.9685 8.38562C19.9685 14.7836 15.75 19.97 10.5458 19.97C8.02046 19.97 5.72709 18.7484 4.03491 16.7599C5.71797 19.9158 8.62116 22 11.9199 22C17.1241 22 21.3426 16.8136 21.3426 10.4156C21.3426 8.57657 20.5069 6.97354 19.3166 5.62273Z" fill="#A3B6BF"/>
</g>
<path d="M15.2814 14.8256C13.4738 14.8256 12.0085 13.3446 12.0085 11.5182C12.0085 9.69185 13.4738 8.21088 15.2814 8.21088C17.0891 8.21088 18.5543 9.69185 18.5543 11.5182C18.5543 13.3446 17.0891 14.8256 15.2814 14.8256Z" fill="#0C0C0C"/>
<path d="M15.2814 14.4432C13.6829 14.4432 12.3868 13.1335 12.3868 11.5183C12.3868 9.90308 13.6829 8.5933 15.2814 8.5933C16.8798 8.5933 18.1759 9.90308 18.1759 11.5183C18.1759 13.1335 16.8798 14.4432 15.2814 14.4432Z" fill="#03566F"/>
<path d="M15.2814 13.7098C14.0836 13.7098 13.1121 12.7288 13.1121 11.5178C13.1121 10.3067 14.0831 9.32568 15.2814 9.32568C16.4798 9.32568 17.4502 10.3067 17.4502 11.5178C17.4502 12.7288 16.4792 13.7098 15.2814 13.7098Z" fill="#00B0DA"/>
<path opacity="0.57" d="M16.7562 13.2135C16.1221 13.2135 15.608 12.6943 15.608 12.0536C15.608 11.4129 16.1221 10.8938 16.7562 10.8938C17.3904 10.8938 17.9039 11.4129 17.9039 12.0536C17.9039 12.6943 17.3899 13.2135 16.7562 13.2135Z" fill="white"/>
<path d="M6.84488 14.5881C5.03723 14.5881 3.57196 13.1071 3.57196 11.2807C3.57196 9.45431 5.03723 7.97334 6.84488 7.97334C8.65253 7.97334 10.1178 9.45431 10.1178 11.2807C10.1178 13.1071 8.65253 14.5881 6.84488 14.5881Z" fill="#0C0C0C"/>
<path d="M6.84483 14.2057C5.24636 14.2057 3.95026 12.8959 3.95026 11.2807C3.95026 9.66554 5.24636 8.35576 6.84483 8.35576C8.4433 8.35576 9.73941 9.66554 9.73941 11.2807C9.73941 12.8959 8.4433 14.2057 6.84483 14.2057Z" fill="#03566F"/>
<path d="M6.84494 13.4728C5.6471 13.4728 4.67566 12.4912 4.67566 11.2807C4.67566 10.0702 5.6466 9.08915 6.84494 9.08915C8.04329 9.08915 9.01423 10.0707 9.01423 11.2807C9.01423 12.4907 8.04329 13.4728 6.84494 13.4728Z" fill="#00B0DA"/>
<path opacity="0.57" d="M8.32026 12.9759C7.68614 12.9759 7.17206 12.4568 7.17206 11.8161C7.17206 11.1754 7.68614 10.6562 8.32026 10.6562C8.95439 10.6562 9.46847 11.1754 9.46847 11.8161C9.46847 12.4568 8.95439 12.9759 8.32026 12.9759Z" fill="white"/>
<path d="M6.63921 4.42388C6.96285 4.34994 7.29359 4.50999 7.43693 4.80983C7.69068 5.34164 7.99052 6.15151 7.65725 6.48478C7.14114 7.00089 4.94855 7.06066 4.03536 7.97335C3.12216 8.88654 2.51286 7.23995 2.93983 6.13277C3.26702 5.28491 5.5766 4.66649 6.63921 4.42388Z" fill="#043340"/>
<path d="M6.33599 3.93917C6.65963 3.86522 6.99037 4.02527 7.1337 4.32511C7.38745 4.85692 7.68729 5.66679 7.35403 6.00006C6.83791 6.51617 4.64533 6.57594 3.73214 7.48863C2.81894 8.40183 2.20963 6.75524 2.6366 5.64805C2.96379 4.80019 5.27338 4.18177 6.33599 3.93917Z" fill="#A2BFDC"/>
<path d="M15.2684 4.82809C14.9447 4.75414 14.614 4.91419 14.4706 5.21403C14.2169 5.74584 13.917 6.55572 14.2503 6.88899C14.7664 7.4051 16.959 7.46486 17.8722 8.37755C18.7854 9.29075 19.3947 7.64416 18.9677 6.53698C18.6405 5.68912 16.331 5.0707 15.2684 4.82809Z" fill="#043340"/>
<path d="M15.5718 4.34388C15.2481 4.26993 14.9174 4.42998 14.774 4.72982C14.5203 5.26163 14.2205 6.0715 14.5537 6.40477C15.0698 6.92088 17.2624 6.98065 18.1756 7.89334C19.0888 8.80654 19.6981 7.15994 19.2711 6.05276C18.9439 5.2049 16.6344 4.58648 15.5718 4.34388Z" fill="#A2BFDC"/>
<path d="M21.6769 14.0461C21.4236 14.9654 21.0149 15.8518 20.596 16.4839L20.319 17.6012L19.4949 17.4067C18.9125 17.237 18.685 15.2551 19.0457 13.4252C19.4286 11.6074 20.5276 9.89446 21.2372 10.0241L22.1449 10.2384L21.8784 11.3136C21.9818 12.087 21.925 13.098 21.6769 14.0461Z" fill="#0084A4"/>
<path d="M22.501 14.2406C22.9715 12.4436 22.7542 10.4197 22.0613 10.2186C21.3517 10.0889 20.2527 11.8019 19.8698 13.6197C19.5091 15.4496 19.7365 17.4315 20.319 17.6012C20.9157 17.7101 22.0051 16.0386 22.501 14.2406Z" fill="#A2BFDC"/>
<path d="M20.9801 16.5117C20.7618 16.8298 20.269 16.7133 20.2158 16.3314C20.1257 15.6841 20.1201 14.738 20.3232 13.7093C20.5683 12.5454 21.0606 11.6277 21.4597 11.1176C21.6791 10.838 22.1293 10.9444 22.1997 11.2929C22.3279 11.9275 22.3572 12.9698 22.0549 14.1241C21.7773 15.1315 21.3493 15.9743 20.9801 16.5122V16.5117Z" fill="#043340"/>
<path d="M21.0752 15.4222C20.9623 15.6532 20.6153 15.5711 20.6179 15.3138C20.6219 14.896 20.6609 14.3784 20.7754 13.7974C20.9253 13.0853 21.1618 12.5175 21.3766 12.1078C21.4916 11.889 21.8248 11.968 21.8294 12.2152C21.838 12.6796 21.7944 13.297 21.6091 14.0066C21.4536 14.5713 21.2581 15.0484 21.0757 15.4222H21.0752Z" fill="#A2BFDC"/>
<path d="M14.4321 16.7741C14.9436 16.887 13.6217 19.2016 10.7383 19.2113C7.85482 19.2016 6.53289 16.887 7.04444 16.7741C7.46685 16.6024 8.923 17.8093 10.7383 17.7425C12.5535 17.8093 14.0097 16.6024 14.4321 16.7741Z" fill="#043340"/>
<path d="M14.432 16.7741C14.3991 16.7609 14.3601 16.7558 14.3145 16.7578C14.2547 17.3494 12.9348 18.9803 10.5154 18.9884C9.10681 18.9839 8.07155 18.4293 7.43945 17.8498C8.03458 18.5007 9.14935 19.2062 10.7382 19.2113C13.6216 19.2016 14.9436 16.887 14.432 16.7741Z" fill="#4890C0"/>
</svg>
